
<svg width="15" height="17" viewBox="0 0 15 17" fill="none" xmlns="http://www.w3.org/2000/svg">
<path fill-rule="evenodd" clip-rule="evenodd" d="M1.02446 6.12617C0.75 6.72291 0.75 7.40179 0.75 8.75955V12.9999C0.75 14.8856 0.75 15.8284 1.33579 16.4142C1.86733 16.9457 2.69285 16.9949 4.25 16.9995V12C4.25 10.8954 5.14543 10 6.25 10H9.25C10.3546 10 11.25 10.8954 11.25 12V16.9995C12.8072 16.9949 13.6327 16.9457 14.1642 16.4142C14.75 15.8284 14.75 14.8856 14.75 12.9999V8.75955C14.75 7.40179 14.75 6.72291 14.4755 6.12617C14.2011 5.52943 13.6856 5.08763 12.6547 4.20401L11.6547 3.34687C9.79143 1.74974 8.85977 0.951172 7.75 0.951172C6.64023 0.951172 5.70857 1.74974 3.84525 3.34687L2.84525 4.20401C1.81437 5.08763 1.29892 5.52943 1.02446 6.12617ZM9.25 16.9999V12H6.25V16.9999H9.25Z" fill="#AFAFAF"/>
</svg>
