<svg width="25" height="25" viewBox="0 0 25 25" fill="none" xmlns="http://www.w3.org/2000/svg">
<g clip-path="url(#clip0_1574_2488)">
<path d="M12.5 22.9168C18.253 22.9168 22.9167 18.2531 22.9167 12.5002C22.9167 6.7472 18.253 2.0835 12.5 2.0835C6.74704 2.0835 2.08334 6.7472 2.08334 12.5002C2.08334 18.2531 6.74704 22.9168 12.5 22.9168Z" fill="white"/>
<path d="M12.5 8.3335V16.6668M8.33334 12.5002H16.6667M22.9167 12.5002C22.9167 18.2531 18.253 22.9168 12.5 22.9168C6.74704 22.9168 2.08334 18.2531 2.08334 12.5002C2.08334 6.7472 6.74704 2.0835 12.5 2.0835C18.253 2.0835 22.9167 6.7472 22.9167 12.5002Z" stroke="#6E2FF4" stroke-width="4" stroke-linecap="round" stroke-linejoin="round"/>
</g>
<defs>
<clipPath id="clip0_1574_2488">
<rect width="25" height="25" fill="white"/>
</clipPath>
</defs>
</svg>
