<svg width="76" height="31" viewBox="0 0 76 31" fill="none" xmlns="http://www.w3.org/2000/svg">
<rect y="0.5" width="76" height="30" rx="15" fill="#0066FF"/>
<path d="M23.0001 11.4167V19.5834M18.9167 15.5001H27.0834" stroke="white" stroke-width="4" stroke-linecap="round" stroke-linejoin="round"/>
<path d="M48.3281 20.6016H46.8281V14.8477H44.918V13.6289H46.8281V9.91406H48.3281V20.6016ZM43.3477 12.5859C43.3477 13.2305 43.4453 13.8574 43.6406 14.4668C43.8398 15.0723 44.1387 15.6152 44.5371 16.0957C44.9395 16.5762 45.4297 16.9414 46.0078 17.1914L45.1289 18.375C44.5273 18.0938 44.0137 17.6895 43.5879 17.1621C43.1621 16.6348 42.832 16.0195 42.5977 15.3164C42.3594 16.0703 42.0234 16.7324 41.5898 17.3027C41.1602 17.8691 40.6445 18.3008 40.043 18.5977L39.1523 17.4141C39.7305 17.1484 40.2188 16.7656 40.6172 16.2656C41.0156 15.7617 41.3145 15.1934 41.5137 14.5605C41.7129 13.9238 41.8125 13.2656 41.8125 12.5859V12.1406H39.5977V10.9453H45.5625V12.1406H43.3477V12.5859ZM55.7461 11.8242H53.625C53.6289 12.2539 53.7188 12.6621 53.8945 13.0488C54.0742 13.4316 54.3477 13.7734 54.7148 14.0742C55.082 14.375 55.5391 14.6055 56.0859 14.7656L55.3711 15.9375C54.7969 15.7617 54.3027 15.5039 53.8887 15.1641C53.4746 14.8242 53.1465 14.4199 52.9043 13.9512C52.6621 14.502 52.3203 14.9805 51.8789 15.3867C51.4414 15.7891 50.9102 16.0938 50.2852 16.3008L49.5234 15.1172C50.0898 14.9375 50.5664 14.6777 50.9531 14.3379C51.3398 13.998 51.627 13.6113 51.8145 13.1777C52.0059 12.7441 52.1055 12.293 52.1133 11.8242H49.9336V10.6289H55.7461V11.8242ZM58.1484 12.3867H59.5898V13.6055H58.1484V16.2422H56.6484V9.91406H58.1484V12.3867ZM54.6562 16.4531C55.3906 16.4492 56.0273 16.5293 56.5664 16.6934C57.1094 16.8535 57.5254 17.0879 57.8145 17.3965C58.1074 17.7051 58.2539 18.0742 58.2539 18.5039C58.2539 18.9336 58.1074 19.3027 57.8145 19.6113C57.5254 19.9238 57.1094 20.1621 56.5664 20.3262C56.0273 20.4941 55.3906 20.5781 54.6562 20.5781C53.9062 20.5781 53.2559 20.4941 52.7051 20.3262C52.1582 20.1621 51.7363 19.9238 51.4395 19.6113C51.1465 19.3027 51 18.9336 51 18.5039C51 18.0742 51.1465 17.7051 51.4395 17.3965C51.7363 17.0879 52.1582 16.8535 52.7051 16.6934C53.2559 16.5293 53.9062 16.4492 54.6562 16.4531ZM54.6562 17.6133C53.9453 17.6133 53.4062 17.6875 53.0391 17.8359C52.6758 17.9844 52.4961 18.207 52.5 18.5039C52.4961 18.8047 52.6777 19.0332 53.0449 19.1895C53.4121 19.3418 53.9492 19.418 54.6562 19.418C55.3516 19.418 55.8789 19.3418 56.2383 19.1895C56.5977 19.0371 56.7773 18.8086 56.7773 18.5039C56.7773 18.207 56.5977 17.9844 56.2383 17.8359C55.8789 17.6875 55.3516 17.6133 54.6562 17.6133Z" fill="white"/>
</svg>
