<svg width="20" height="20" viewBox="0 0 20 20" fill="none" xmlns="http://www.w3.org/2000/svg">
<path d="M17.675 13.2415C17.1448 14.4952 16.3156 15.6 15.2599 16.4593C14.2041 17.3185 12.954 17.906 11.6187 18.1705C10.2834 18.435 8.90368 18.3683 7.60011 17.9763C6.29655 17.5844 5.10884 16.8791 4.14084 15.922C3.17283 14.965 2.454 13.7855 2.04719 12.4865C1.64037 11.1875 1.55796 9.80858 1.80715 8.47037C2.05635 7.13215 2.62957 5.87536 3.4767 4.80986C4.32382 3.74436 5.41906 2.9026 6.66666 2.35817M18.3333 9.99984C18.3333 8.90549 18.1178 7.82185 17.699 6.81081C17.2802 5.79976 16.6664 4.8811 15.8925 4.10728C15.1187 3.33346 14.2001 2.71963 13.189 2.30084C12.178 1.88205 11.0943 1.6665 9.99999 1.6665V9.99984H18.3333Z" stroke="#AFAFAF" stroke-width="2" stroke-linecap="round" stroke-linejoin="round"/>
</svg>
