<svg width="16" height="20" viewBox="0 0 16 20" fill="none" xmlns="http://www.w3.org/2000/svg">
<path d="M11.3333 3.33317H13C13.442 3.33317 13.866 3.50877 14.1785 3.82133C14.4911 4.13389 14.6667 4.55781 14.6667 4.99984V16.6665C14.6667 17.1085 14.4911 17.5325 14.1785 17.845C13.866 18.1576 13.442 18.3332 13 18.3332H3.00001C2.55798 18.3332 2.13406 18.1576 1.8215 17.845C1.50894 17.5325 1.33334 17.1085 1.33334 16.6665V4.99984C1.33334 4.55781 1.50894 4.13389 1.8215 3.82133C2.13406 3.50877 2.55798 3.33317 3.00001 3.33317H4.66668M5.50001 1.6665H10.5C10.9602 1.6665 11.3333 2.0396 11.3333 2.49984V4.1665C11.3333 4.62674 10.9602 4.99984 10.5 4.99984H5.50001C5.03977 4.99984 4.66668 4.62674 4.66668 4.1665V2.49984C4.66668 2.0396 5.03977 1.6665 5.50001 1.6665Z" stroke="#AFAFAF" stroke-width="2" stroke-linecap="round" stroke-linejoin="round"/>
</svg>
