<svg width="25" height="24" viewBox="0 0 25 24" fill="none" xmlns="http://www.w3.org/2000/svg">
<path d="M12.8333 15C14.4902 15 15.8333 13.6569 15.8333 12C15.8333 10.3431 14.4902 9 12.8333 9C11.1765 9 9.83334 10.3431 9.83334 12C9.83334 13.6569 11.1765 15 12.8333 15Z" stroke="#49454F" stroke-width="2.5" stroke-linecap="round" stroke-linejoin="round"/>
<path d="M20.2333 15C20.1002 15.3016 20.0605 15.6362 20.1193 15.9606C20.1782 16.285 20.3328 16.5843 20.5633 16.82L20.6233 16.88C20.8093 17.0657 20.9568 17.2863 21.0575 17.5291C21.1581 17.7719 21.2099 18.0322 21.2099 18.295C21.2099 18.5578 21.1581 18.8181 21.0575 19.0609C20.9568 19.3037 20.8093 19.5243 20.6233 19.71C20.4376 19.896 20.217 20.0435 19.9742 20.1441C19.7314 20.2448 19.4712 20.2966 19.2083 20.2966C18.9455 20.2966 18.6853 20.2448 18.4425 20.1441C18.1997 20.0435 17.9791 19.896 17.7933 19.71L17.7333 19.65C17.4977 19.4195 17.1983 19.2648 16.8739 19.206C16.5495 19.1472 16.215 19.1869 15.9133 19.32C15.6176 19.4468 15.3653 19.6572 15.1877 19.9255C15.01 20.1938 14.9146 20.5082 14.9133 20.83V21C14.9133 21.5304 14.7026 22.0391 14.3276 22.4142C13.9525 22.7893 13.4438 23 12.9133 23C12.3829 23 11.8742 22.7893 11.4991 22.4142C11.1241 22.0391 10.9133 21.5304 10.9133 21V20.91C10.9056 20.579 10.7985 20.258 10.6059 19.9887C10.4132 19.7194 10.1441 19.5143 9.83334 19.4C9.53173 19.2669 9.19715 19.2272 8.87276 19.286C8.54836 19.3448 8.24902 19.4995 8.01334 19.73L7.95334 19.79C7.7676 19.976 7.54702 20.1235 7.30422 20.2241C7.06143 20.3248 6.80117 20.3766 6.53834 20.3766C6.27551 20.3766 6.01526 20.3248 5.77246 20.2241C5.52967 20.1235 5.30909 19.976 5.12334 19.79C4.93739 19.6043 4.78987 19.3837 4.68922 19.1409C4.58858 18.8981 4.53677 18.6378 4.53677 18.375C4.53677 18.1122 4.58858 17.8519 4.68922 17.6091C4.78987 17.3663 4.93739 17.1457 5.12334 16.96L5.18334 16.9C5.41388 16.6643 5.56853 16.365 5.62735 16.0406C5.68617 15.7162 5.64646 15.3816 5.51334 15.08C5.38658 14.7842 5.1761 14.532 4.90781 14.3543C4.63952 14.1766 4.32513 14.0813 4.00334 14.08H3.83334C3.30291 14.08 2.7942 13.8693 2.41913 13.4942C2.04406 13.1191 1.83334 12.6104 1.83334 12.08C1.83334 11.5496 2.04406 11.0409 2.41913 10.6658C2.7942 10.2907 3.30291 10.08 3.83334 10.08H3.92334C4.25434 10.0723 4.57535 9.96512 4.84464 9.77251C5.11394 9.5799 5.31906 9.31074 5.43334 9C5.56646 8.69838 5.60617 8.36381 5.54735 8.03941C5.48853 7.71502 5.33388 7.41568 5.10334 7.18L5.04334 7.12C4.85739 6.93425 4.70987 6.71368 4.60922 6.47088C4.50858 6.22808 4.45677 5.96783 4.45677 5.705C4.45677 5.44217 4.50858 5.18192 4.60922 4.93912C4.70987 4.69632 4.85739 4.47575 5.04334 4.29C5.22909 4.10405 5.44967 3.95653 5.69246 3.85588C5.93526 3.75523 6.19551 3.70343 6.45834 3.70343C6.72117 3.70343 6.98143 3.75523 7.22422 3.85588C7.46702 3.95653 7.6876 4.10405 7.87334 4.29L7.93334 4.35C8.16902 4.58054 8.46836 4.73519 8.79275 4.794C9.11715 4.85282 9.45173 4.81312 9.75334 4.68H9.83334C10.1291 4.55324 10.3814 4.34276 10.559 4.07447C10.7367 3.80618 10.8321 3.49179 10.8333 3.17V3C10.8333 2.46957 11.0441 1.96086 11.4191 1.58579C11.7942 1.21071 12.3029 1 12.8333 1C13.3638 1 13.8725 1.21071 14.2476 1.58579C14.6226 1.96086 14.8333 2.46957 14.8333 3V3.09C14.8346 3.41179 14.93 3.72618 15.1077 3.99447C15.2853 4.26276 15.5376 4.47324 15.8333 4.6C16.135 4.73312 16.4695 4.77282 16.7939 4.714C17.1183 4.65519 17.4177 4.50054 17.6533 4.27L17.7133 4.21C17.8991 4.02405 18.1197 3.87653 18.3625 3.77588C18.6053 3.67523 18.8655 3.62343 19.1283 3.62343C19.3912 3.62343 19.6514 3.67523 19.8942 3.77588C20.137 3.87653 20.3576 4.02405 20.5433 4.21C20.7293 4.39575 20.8768 4.61632 20.9775 4.85912C21.0781 5.10192 21.1299 5.36217 21.1299 5.625C21.1299 5.88783 21.0781 6.14808 20.9775 6.39088C20.8768 6.63368 20.7293 6.85425 20.5433 7.04L20.4833 7.1C20.2528 7.33568 20.0982 7.63502 20.0393 7.95941C19.9805 8.28381 20.0202 8.61838 20.1533 8.92V9C20.2801 9.29577 20.4906 9.54802 20.7589 9.72569C21.0272 9.90337 21.3416 9.99872 21.6633 10H21.8333C22.3638 10 22.8725 10.2107 23.2476 10.5858C23.6226 10.9609 23.8333 11.4696 23.8333 12C23.8333 12.5304 23.6226 13.0391 23.2476 13.4142C22.8725 13.7893 22.3638 14 21.8333 14H21.7433C21.4216 14.0013 21.1072 14.0966 20.8389 14.2743C20.5706 14.452 20.3601 14.7042 20.2333 15Z" stroke="#49454F" stroke-width="2.5" stroke-linecap="round" stroke-linejoin="round"/>
</svg>
